<?xml version="1.0" encoding="utf-8"?>
<!-- Generator: Adobe Illustrator 25.4.1, SVG Export Plug-In . SVG Version: 6.00 Build 0)  -->
<svg version="1.0" id="katman_1" xmlns="http://www.w3.org/2000/svg" xmlns:xlink="http://www.w3.org/1999/xlink" x="0px" y="0px"
	 viewBox="0 0 800 600" style="enable-background:new 0 0 800 600;" xml:space="preserve">
<style type="text/css">
	.st0{fill-rule:evenodd;clip-rule:evenodd;}
</style>
<path class="st0" d="M214.2,246.2l0.8,5c0.6,4.6,0.9,9.2,0.8,13.9c0,10.3-1.2,20.5-3.6,30.5c-3.2,13.5-8.8,26.4-16.5,38
	c-8.9,13.2-21.8,26.1-40.5,36.7l-2.3,1.3l-2.3-1.3c-18.7-10.4-31.6-23.4-40.5-36.7c-7.8-11.6-13.3-24.4-16.5-38
	c-2.4-10-3.6-20.2-3.6-30.5c0-4.6,0.2-9.3,0.8-13.9l0.7-5c0.1-0.4,0.1-0.8,0-1.2c-0.1-0.4-0.2-0.8-0.5-1.1c-0.2-0.3-0.5-0.6-0.8-0.8
	c-0.3-0.2-0.7-0.3-1-0.4c-0.4-0.1-0.8-0.1-1.2,0c-0.4,0.1-0.8,0.3-1.1,0.5c-0.3,0.2-0.6,0.5-0.8,0.8c-0.2,0.4-0.3,0.8-0.4,1.2
	l-0.8,5c-0.6,4.9-0.9,9.9-0.9,14.9c0,10.8,1.3,21.5,3.8,32c1.7,7.1,4,14.1,6.9,20.8c2.9,6.7,6.4,13.1,10.5,19.2
	c9.4,14,23,27.7,42.6,38.5l3.7,2.1c0.5,0.2,1,0.3,1.5,0.3c0.5,0,1-0.1,1.5-0.3l3.7-2.1c19.5-10.9,33.2-24.6,42.6-38.5
	c8.2-12.2,14.1-25.8,17.4-40c2.5-10.5,3.7-21.2,3.7-32c0-5-0.3-10-0.9-15l-0.8-5c-0.1-0.4-0.2-0.8-0.4-1.2c-0.2-0.3-0.5-0.6-0.8-0.8
	c-0.3-0.2-0.7-0.4-1.1-0.5c-0.4-0.1-0.8-0.1-1.2,0c-0.4,0.1-0.8,0.2-1.2,0.4c-0.3,0.2-0.6,0.5-0.8,0.8c-0.2,0.3-0.4,0.7-0.5,1.1
	L214.2,246.2z"/>
<path class="st0" d="M108.3,242.8l44.8-14.1l45.7,14.4c0.4,0.1,0.8,0.1,1.2,0.1c0.4,0,0.8-0.1,1.2-0.3c0.4-0.2,0.7-0.4,1-0.8
	c0.3-0.3,0.5-0.7,0.5-1.1c0.1-0.4,0.1-0.8,0.1-1.2c0-0.4-0.1-0.8-0.3-1.2c-0.2-0.4-0.4-0.7-0.7-1c-0.3-0.3-0.7-0.5-1.1-0.5
	l-46.7-14.8c-0.6-0.2-1.2-0.2-1.8,0l-45.6,14.4c-0.4,0.1-0.7,0.3-1.1,0.5c-0.3,0.3-0.6,0.6-0.7,1c-0.2,0.4-0.3,0.8-0.3,1.2
	c0,0.4,0,0.8,0.1,1.2c0.1,0.4,0.3,0.8,0.5,1.1c0.2,0.3,0.6,0.6,1,0.8c0.3,0.2,0.7,0.3,1.2,0.3C107.5,242.9,107.9,242.9,108.3,242.8z
	"/>
<path class="st0" d="M86.2,247.1l64.1,129.2c0.2,0.5,0.6,0.9,1,1.2c1,0.6,2.2,0.6,3.2,0c0.5-0.3,0.9-0.7,1.2-1.2l39.1-75.5l0.1-0.1
	l25-53.7c0.2-0.4,0.3-0.8,0.3-1.2c0-0.4,0-0.8-0.2-1.2c-0.1-0.4-0.3-0.8-0.6-1.1c-0.2-0.3-0.6-0.6-0.9-0.8c-0.3-0.2-0.7-0.3-1.2-0.3
	c-0.4,0-0.8,0-1.2,0.1c-0.4,0.1-0.8,0.3-1.1,0.6c-0.3,0.3-0.6,0.6-0.7,1l-25,53.7l-36.4,70.3l-61.4-124c-0.2-0.3-0.5-0.7-0.7-1
	c-0.3-0.3-0.7-0.5-1.1-0.6c-0.4-0.2-0.8-0.2-1.2-0.1c-0.4,0-0.8,0.1-1.2,0.3c-0.3,0.2-0.7,0.5-0.9,0.8c-0.2,0.3-0.4,0.7-0.5,1.1
	c-0.1,0.4-0.2,0.8-0.1,1.2C85.9,246.3,86,246.7,86.2,247.1z"/>
<path class="st0" d="M116.9,304.7h71.4c0.4,0,0.8-0.1,1.2-0.2c0.4-0.1,0.7-0.4,0.9-0.7c0.3-0.3,0.5-0.6,0.6-1c0.3-0.8,0.3-1.6,0-2.4
	c-0.1-0.4-0.4-0.7-0.6-1c-0.3-0.3-0.6-0.5-0.9-0.7c-0.4-0.1-0.8-0.2-1.2-0.2h-71.4c-0.4,0-0.8,0.1-1.2,0.2c-0.4,0.1-0.7,0.4-0.9,0.7
	c-0.3,0.3-0.5,0.6-0.6,1c-0.3,0.8-0.3,1.6,0,2.4c0.1,0.4,0.3,0.7,0.6,1c0.3,0.3,0.6,0.5,0.9,0.7
	C116.1,304.6,116.5,304.6,116.9,304.7z M315.9,277.8h-46.4c-0.4,0-0.8,0.1-1.2,0.2c-0.4,0.1-0.7,0.4-0.9,0.7c-0.3,0.3-0.5,0.6-0.6,1
	c-0.1,0.4-0.2,0.8-0.2,1.2v38.5c0,0.4,0.1,0.8,0.2,1.2c0.1,0.4,0.3,0.7,0.6,1c0.3,0.3,0.6,0.5,0.9,0.7c0.4,0.1,0.8,0.2,1.2,0.2h46.4
	v6.5h-46.4c-0.6,0-1.2-0.1-1.8-0.2c-0.6-0.1-1.2-0.3-1.8-0.5c-0.6-0.2-1.1-0.5-1.6-0.8c-0.5-0.4-0.9-0.8-1.4-1.2
	c-0.9-0.9-1.5-1.9-2-3c-0.2-0.6-0.4-1.2-0.5-1.8c-0.1-0.6-0.2-1.2-0.2-1.8V281c0-0.6,0.1-1.2,0.2-1.8c0.1-0.6,0.3-1.2,0.5-1.8
	c0.2-0.6,0.5-1.2,0.8-1.7c0.3-0.5,0.7-1,1.2-1.4c0.4-0.4,0.9-0.8,1.4-1.2c0.5-0.3,1-0.6,1.6-0.8c0.6-0.2,1.2-0.4,1.8-0.5
	c0.6-0.1,1.2-0.2,1.8-0.2h46.4L315.9,277.8L315.9,277.8z M403,271.3v6.5h-44.7v19.1h35.9v6.6h-35.9v19.1H403v6.5h-50.9v-57.8H403z"
	/>
<path d="M495.1,281.1V298c0,0.6-0.1,1.2-0.2,1.8c-0.1,0.6-0.3,1.2-0.5,1.8c-0.2,0.6-0.5,1.2-0.8,1.7c-0.4,0.5-0.7,1-1.2,1.4
	c-0.4,0.4-0.9,0.8-1.4,1.2c-0.5,0.3-1,0.6-1.6,0.8c-0.6,0.2-1.2,0.4-1.8,0.6c-0.6,0.1-1.2,0.2-1.8,0.2h-8.5l17.5,21.5h-8.4
	l-17.4-21.5h-20.4c-1,0-2-0.1-3-0.3v21.8h-6.3v-57.6h46.6c0.6,0,1.2,0.1,1.8,0.2c0.6,0.1,1.2,0.3,1.8,0.5c0.6,0.2,1.1,0.5,1.6,0.9
	c1,0.7,1.8,1.6,2.5,2.6c0.3,0.5,0.6,1.1,0.8,1.7c0.2,0.6,0.4,1.2,0.5,1.8C495,279.8,495.1,280.5,495.1,281.1z M448.5,301.1h37.3
	c0.4,0,0.8-0.1,1.2-0.2c0.4-0.1,0.7-0.3,0.9-0.7c0.3-0.3,0.5-0.6,0.6-1c0.1-0.4,0.2-0.8,0.2-1.2v-16.9c0-0.8-0.3-1.6-0.8-2.2
	c-0.5-0.6-1.3-1-2.1-1h-37.3c-0.4,0-0.8,0.1-1.2,0.2c-0.4,0.1-0.7,0.4-0.9,0.7c-0.3,0.3-0.5,0.6-0.6,1c-0.1,0.4-0.2,0.8-0.2,1.2
	v16.9c0,0.8,0.3,1.6,1,2.2C447,300.7,447.8,301.1,448.5,301.1z"/>
<path class="st0" d="M528.5,271.3h55.8v6.5h-24.7v51.2h-6.3v-51.2h-24.8V271.3z M618.3,329.1v-57.7h6.3v57.7H618.3z M708.5,271.3
	h8.1l-23.3,28.9l23.4,28.9h-8.2l-20.8-25.6h-18v25.6h-6.3v-57.7h6.4v25.6h18L708.5,271.3z"/>
</svg>
